<?xml version="1.0" encoding="UTF-8"?>
<!DOCTYPE svg PUBLIC "-//W3C//DTD SVG 1.1//EN" "http://www.w3.org/Graphics/SVG/1.1/DTD/svg11.dtd">

<svg xmlns="http://www.w3.org/2000/svg" xmlns:xlink="http://www.w3.org/1999/xlink" version="1.1">
	<!-- icon sprites (see MaterialDesign/LICENSE for more info.) -->
	<symbol id="mdi-fullscreen" width="24" height="24" viewBox="0 0 24 24">
		<path d="M5,5H10V7H7V10H5V5M14,5H19V10H17V7H14V5M17,14H19V19H14V17H17V14M10,17V19H5V14H7V17H10Z"/>
	</symbol>

	<symbol id="mdi-fullscreen-exit" width="24" height="24" viewBox="0 0 24 24">
		<path d="M14,14H19V16H16V19H14V14M5,14H10V19H8V16H5V14M8,5H10V10H5V8H8V5M19,8V10H14V5H16V8H19Z"/>
	</symbol>

	<symbol id="mdi-cog-refresh-outline" width="24" height="24" viewBox="0 0 24 24">
		<path d="M18 14.5C19.1 14.5 20.1 14.9 20.8 15.7L22 14.5V18.5H18L19.8 16.7C19.3 16.3 18.7 16 18 16C16.6 16 15.5 17.1 15.5 18.5S16.6 21 18 21C18.8 21 19.5 20.6 20 20H21.7C21.1 21.5 19.7 22.5 18 22.5C15.8 22.5 14 20.7 14 18.5S15.8 14.5 18 14.5M11.7 20H11.3L10.9 17.4C9.7 17.2 8.7 16.5 7.9 15.6L5.5 16.6L4.7 15.3L6.8 13.7C6.4 12.5 6.4 11.3 6.8 10.1L4.7 8.7L5.5 7.4L7.9 8.4C8.7 7.5 9.7 6.9 10.9 6.6L11.2 4H12.7L13.1 6.6C14.3 6.8 15.4 7.5 16.1 8.4L18.5 7.4L19.3 8.7L17.2 10.2C17.4 10.8 17.5 11.4 17.5 12H18C18.5 12 19 12.1 19.5 12.2V12L19.4 11L21.5 9.4C21.7 9.2 21.7 9 21.6 8.8L19.6 5.3C19.5 5 19.3 5 19 5L16.5 6C16 5.6 15.4 5.3 14.8 5L14.4 2.3C14.5 2.2 14.2 2 14 2H10C9.8 2 9.5 2.2 9.5 2.4L9.1 5.1C8.5 5.3 8 5.7 7.4 6L5 5C4.7 5 4.5 5 4.3 5.3L2.3 8.8C2.2 9 2.3 9.2 2.5 9.4L4.6 11L4.5 12L4.6 13L2.5 14.7C2.3 14.9 2.3 15.1 2.4 15.3L4.4 18.8C4.5 19 4.7 19 5 19L7.5 18C8 18.4 8.6 18.7 9.2 19L9.6 21.7C9.6 21.9 9.8 22.1 10.1 22.1H12.6C12.1 21.4 11.9 20.7 11.7 20M16 12.3V12C16 9.8 14.2 8 12 8S8 9.8 8 12C8 14.2 9.8 16 12 16C12.7 14.3 14.2 12.9 16 12.3M10 12C10 10.9 10.9 10 12 10S14 10.9 14 12 13.1 14 12 14 10 13.1 10 12Z"/>
	</symbol>

	<symbol id="chart-line" width="24" height="24" viewBox="0 0 24 24">
		<path d="M16,11.78L20.24,4.45L21.97,5.45L16.74,14.5L10.23,10.75L5.46,19H22V21H2V3H4V17.54L9.5,8L16,11.78Z"/>
	</symbol>

	<symbol id="replay" width="24" height="24" viewBox="0 0 24 24">
		<path d="M12,5V1L7,6L12,11V7A6,6 0 0,1 18,13A6,6 0 0,1 12,19A6,6 0 0,1 6,13H4A8,8 0 0,0 12,21A8,8 0 0,0 20,13A8,8 0 0,0 12,5Z"/>
	</symbol>

	<symbol id="tray-arrow-down" width="24" height="24" viewBox="0 0 24 24">
		<path d="M2 12H4V17H20V12H22V17C22 18.11 21.11 19 20 19H4C2.9 19 2 18.11 2 17V12M12 15L17.55 9.54L16.13 8.13L13 11.25V2H11V11.25L7.88 8.13L6.46 9.55L12 15Z"/>
	</symbol>

	<symbol id="image-outline" width="24" height="24" viewBox="0 0 24 24">
		<path d="M19,19H5V5H19M19,3H5A2,2 0 0,0 3,5V19A2,2 0 0,0 5,21H19A2,2 0 0,0 21,19V5A2,2 0 0,0 19,3M13.96,12.29L11.21,15.83L9.25,13.47L6.5,17H17.5L13.96,12.29Z"/>
	</symbol>

	<symbol id="record-circle-outline" width="24" height="24" viewBox="0 0 24 24">
		<path d="M12,2A10,10 0 0,0 2,12A10,10 0 0,0 12,22A10,10 0 0,0 22,12A10,10 0 0,0 12,2M12,4A8,8 0 0,1 20,12A8,8 0 0,1 12,20A8,8 0 0,1 4,12A8,8 0 0,1 12,4M12,9A3,3 0 0,0 9,12A3,3 0 0,0 12,15A3,3 0 0,0 15,12A3,3 0 0,0 12,9Z"/>
	</symbol>

	<symbol id="arrow-expand" width="24" height="24" viewBox="0 0 24 24">
		<path d="M10,21V19H6.41L10.91,14.5L9.5,13.09L5,17.59V14H3V21H10M14.5,10.91L19,6.41V10H21V3H14V5H17.59L13.09,9.5L14.5,10.91Z"/>
	</symbol>

	<symbol id="arrow-collapse" width="24" height="24" viewBox="0 0 24 24">
		<path d="M19.5,3.09L15,7.59V4H13V11H20V9H16.41L20.91,4.5L19.5,3.09M4,13V15H7.59L3.09,19.5L4.5,20.91L9,16.41V20H11V13H4Z"/>
	</symbol>

	<symbol id="format-list-text" width="24" height="24" viewBox="0 0 24 24">
		<path d="M2 14H8V20H2M16 8H10V10H16M2 10H8V4H2M10 4V6H22V4M10 20H16V18H10M10 16H22V14H10"/>
	</symbol>

	<symbol id="weather-sunny" width="24" height="24" viewBox="0 0 24 24">
		<path d="M12,7A5,5 0 0,1 17,12A5,5 0 0,1 12,17A5,5 0 0,1 7,12A5,5 0 0,1 12,7M12,9A3,3 0 0,0 9,12A3,3 0 0,0 12,15A3,3 0 0,0 15,12A3,3 0 0,0 12,9M12,2L14.39,5.42C13.65,5.15 12.84,5 12,5C11.16,5 10.35,5.15 9.61,5.42L12,2M3.34,7L7.5,6.65C6.9,7.16 6.36,7.78 5.94,8.5C5.5,9.24 5.25,10 5.11,10.79L3.34,7M3.36,17L5.12,13.23C5.26,14 5.53,14.78 5.95,15.5C6.37,16.24 6.91,16.86 7.5,17.37L3.36,17M20.65,7L18.88,10.79C18.74,10 18.47,9.23 18.05,8.5C17.63,7.78 17.1,7.15 16.5,6.64L20.65,7M20.64,17L16.5,17.36C17.09,16.85 17.62,16.22 18.04,15.5C18.46,14.77 18.73,14 18.87,13.21L20.64,17M12,22L9.59,18.56C10.33,18.83 11.14,19 12,19C12.82,19 13.63,18.83 14.37,18.56L12,22Z"/>
	</symbol>

	<symbol id="power-sleep" width="24" height="24" viewBox="0 0 24 24">
		<path d="M18.73,18C15.4,21.69 9.71,22 6,18.64C2.33,15.31 2.04,9.62 5.37,5.93C6.9,4.25 9,3.2 11.27,3C7.96,6.7 8.27,12.39 12,15.71C13.63,17.19 15.78,18 18,18C18.25,18 18.5,18 18.73,18Z"/>
	</symbol>

	<symbol id="cellphone-link" width="24" height="24" viewBox="0 0 24 24">
		<path d="M22,17H18V10H22M23,8H17A1,1 0 0,0 16,9V19A1,1 0 0,0 17,20H23A1,1 0 0,0 24,19V9A1,1 0 0,0 23,8M4,6H22V4H4A2,2 0 0,0 2,6V17H0V20H14V17H4V6Z"/>
	</symbol>

	<symbol id="checkbox-multiple-blank-outline" width="24" height="24" viewBox="0 0 24 24">
		<path d="M20,16V4H8V16H20M22,16A2,2 0 0,1 20,18H8C6.89,18 6,17.1 6,16V4C6,2.89 6.89,2 8,2H20A2,2 0 0,1 22,4V16M16,20V22H4A2,2 0 0,1 2,20V7H4V20H16Z"/>
	</symbol>

<!-- icons from LineIcons Basic Free
	 licensed under CreativeCommons (see https://lineicons.com/license for more info.) -->
	<symbol id="lni-users" width="24" height="24" viewBox="0 0 64 64">
		<g>
			<path d="M21.3,37.3c7.5,0,13.3-5.9,13.3-13.3s-5.9-13.3-13.3-13.3S8,16.5,8,24S13.9,37.3,21.3,37.3z M21.3,16c4.5,0,8,3.5,8,8
				s-3.5,8-8,8s-8-3.5-8-8S16.8,16,21.3,16z"/>
			<path d="M21.3,40c-7.7,0-14.9,3.2-20.5,8.8c-1.1,1.1-1.1,2.7,0,3.7s2.7,1.1,3.7,0c4.5-4.5,10.7-7.2,16.8-7.2s12,2.7,16.8,7.2
				c0.5,0.5,1.3,0.8,1.9,0.8c0.8,0,1.3-0.3,1.9-0.8c1.1-1.1,1.1-2.7,0-3.7C36.2,43.2,28.8,40,21.3,40z"/>
			<path d="M48,37.3c4.5,0,8-3.5,8-8s-3.5-8-8-8s-8,3.5-8,8S43.4,37.3,48,37.3z M48,26.7c1.6,0,2.7,1.1,2.7,2.7c0,1.6-1.1,2.7-2.7,2.7
				c-1.6,0-2.7-1.1-2.7-2.7C45.3,27.7,46.4,26.7,48,26.7z"/>
			<path d="M63.2,46.1c-5.6-5.3-13.3-7.2-21.1-5.3c-1.3,0.3-2.4,1.9-1.9,3.2c0.3,1.3,1.9,2.4,3.2,1.9c5.9-1.6,12,0,16.3,4
				c0.5,0.5,1.1,0.8,1.9,0.8c0.8,0,1.3-0.3,1.9-0.8C64.2,48.8,64.2,46.9,63.2,46.1z"/>
		</g>
	</symbol>
</svg>